<?xml version="1.0" standalone="no"?>
<!DOCTYPE svg PUBLIC "-//W3C//DTD SVG 20010904//EN"
 "http://www.w3.org/TR/2001/REC-SVG-20010904/DTD/svg10.dtd">
<svg version="1.0" xmlns="http://www.w3.org/2000/svg"
 width="132.000000pt" height="133.000000pt" viewBox="0 0 132.000000 133.000000"
 preserveAspectRatio="xMidYMid meet">

<g transform="translate(0.000000,133.000000) scale(0.100000,-0.100000)"
fill="#000000" stroke="none">
<path d="M593 1253 c9 -2 23 -2 30 0 6 3 -1 5 -18 5 -16 0 -22 -2 -12 -5z"/>
<path d="M718 1253 c6 -2 18 -2 25 0 6 3 1 5 -13 5 -14 0 -19 -2 -12 -5z"/>
<path d="M425 1210 c-3 -6 1 -7 9 -4 18 7 21 14 7 14 -6 0 -13 -4 -16 -10z"/>
<path d="M385 1190 c-3 -6 1 -7 9 -4 18 7 21 14 7 14 -6 0 -13 -4 -16 -10z"/>
<path d="M995 1126 c53 -142 50 -323 -9 -461 l-21 -50 -7 35 c-7 35 -7 34 -4
-5 4 -47 -12 -83 -66 -147 -49 -59 -90 -84 -157 -99 l-53 -11 6 -40 c9 -56 28
-88 79 -135 49 -45 97 -63 167 -63 84 0 120 17 191 89 175 177 218 465 104
691 -38 74 -111 165 -170 209 -85 64 -89 63 -60 -13z"/>
<path d="M239 1083 l-24 -28 28 24 c15 14 27 26 27 28 0 8 -8 1 -31 -24z"/>
<path d="M189 1023 c-13 -16 -12 -17 4 -4 16 13 21 21 13 21 -2 0 -10 -8 -17
-17z"/>
<path d="M357 1018 c-37 -5 -93 -17 -125 -29 -31 -11 -63 -21 -70 -21 -22 -2
-70 -119 -87 -212 -14 -73 -15 -102 -6 -169 10 -73 17 -97 24 -86 1 2 16 33
33 69 79 164 228 284 412 330 92 23 174 25 231 5 22 -8 41 -12 41 -10 0 9
-131 77 -186 95 -76 27 -181 37 -267 28z"/>
</g>
</svg>
